<svg width="89" height="24" viewBox="0 0 89 24" fill="none" xmlns="http://www.w3.org/2000/svg">
    <path d="M12.5 24C19.4036 24 25 18.6274 25 12C25 5.37258 19.4036 0 12.5 0C5.59644 0 0 5.37258 0 12C0 18.6274 5.59644 24 12.5 24Z" fill="#00C4B4"/>
    <path d="M35.5 12C35.5 18.6274 41.0964 24 48 24C54.9036 24 60.5 18.6274 60.5 12C60.5 5.37258 54.9036 0 48 0C41.0964 0 35.5 5.37258 35.5 12Z" fill="#00C4B4"/>
    <path d="M73 24C79.9036 24 85.5 18.6274 85.5 12C85.5 5.37258 79.9036 0 73 0C66.0964 0 60.5 5.37258 60.5 12C60.5 18.6274 66.0964 24 73 24Z" fill="#00C4B4"/>
</svg> 